<svg viewBox="0 0 1000 1000" xmlns="http://www.w3.org/2000/svg"><defs><clipPath id="c"><path fill="currentColor" d="M774 589.5Q679 679 589.5 828t-258 79q-168.5-70-170-238.5T179 349q19-151 170-209t305-3q154 55 184.5 209T774 589.5Z"/></clipPath><pattern id="a" patternUnits="userSpaceOnUse" width="25" height="25" viewBox="0 0 100 100" fill="#f199bf" patternTransform="rotate(45 0 0)"><path d="M0 0v100" stroke="#f199bf" stroke-width="20"/></pattern><filter id="b" x="-50vw" y="-50vh" width="100vw" height="100vh"><feFlood flood-color="#fff" result="neutral-gray"/><feTurbulence type="fractalNoise" baseFrequency="2.5" numOctaves="100" stitchTiles="stitch" result="noise"/><feColorMatrix in="noise" type="saturate" values="0" result="destaturatedNoise"/><feComponentTransfer in="desaturatedNoise" result="theNoise"><feFuncA type="table" tableValues="0 0 0.25 0"/></feComponentTransfer><feBlend in="SourceGraphic" in2="theNoise" mode="soft-light" result="noisy-image"/></filter></defs><path fill="url(#a)" d="M774 589.5Q679 679 589.5 828t-258 79q-168.5-70-170-238.5T179 349q19-151 170-209t305-3q154 55 184.5 209T774 589.5Z" transform="translate(-60 -60)"/><g filter="url(#b)" clip-path="url(#c)"><path fill="#f199bf" d="M774 589.5Q679 679 589.5 828t-258 79q-168.5-70-170-238.5T179 349q19-151 170-209t305-3q154 55 184.5 209T774 589.5Z"/></g></svg>